<?xml version="1.0" encoding="UTF-8"?>
<svg width="1121px" height="1238px" viewBox="0 0 1121 1238" version="1.1" xmlns="http://www.w3.org/2000/svg" xmlns:xlink="http://www.w3.org/1999/xlink">
    <!-- Generator: Sketch 62 (91390) - https://sketch.com -->
    <title>jest-2</title>
    <desc>Created with Sketch.</desc>
    <g id="Page-1" stroke="none" stroke-width="1" fill="none" fill-rule="evenodd">
        <g id="jest-2" fill-rule="nonzero">
            <path d="M1050.36331,609.295169 C1050.36331,545.682228 998.790701,494.109619 935.17776,494.109619 C931.082469,494.109619 927.048563,494.328853 923.067273,494.749782 L1081.27531,28.1321086 L408.945974,28.1321086 L566.934773,494.342007 C564.603507,494.195151 562.26832,494.119115 559.932439,494.114003 C496.319497,494.114003 444.746888,545.677843 444.746888,609.299554 C444.746888,660.718699 478.447541,704.254189 524.955844,719.065639 C500.392865,761.614577 469.48087,799.941067 434.385889,833.054172 C386.663029,878.071684 332.047451,912.210805 272.977039,933.244116 C202.646768,897.114351 169.437199,816.765085 199.402104,746.316427 C202.787077,738.358233 206.242205,730.294806 209.54387,722.266456 C260.493854,710.375203 298.465185,664.699989 298.465185,610.123874 C298.465185,546.506548 246.892576,494.938323 183.27525,494.938323 C119.657924,494.938323 68.0896998,546.506548 68.0896998,610.123874 C68.0896998,649.134374 87.4962946,683.593576 117.167426,704.429577 C88.6582349,769.340383 46.7494609,837.276619 33.6918831,916.012323 C18.0429593,1010.37064 33.639267,1110.53428 115.251321,1167.10104 C305.318441,1298.83437 511.635186,1085.43637 729.167943,1031.7898 C808.004494,1012.35252 894.544928,1015.48318 964.002648,975.258122 C1016.1628,945.047675 1050.55185,894.979011 1060.30777,838.771795 C1069.95406,783.244204 1055.89678,727.957771 1023.57291,683.1288 C1040.91436,662.437627 1050.40111,636.292369 1050.36331,609.295169" id="Path" fill="#99425B"></path>
            <path d="M1032.5922,833.957416 C1024.121,882.758908 993.980707,925.382384 949.905901,950.914378 C908.817062,974.710037 859.581488,981.813219 807.447639,989.328561 C779.521611,993.353698 750.644107,997.523529 722.433074,1004.47763 C647.840893,1022.87137 575.590132,1058.75997 505.724637,1093.46472 C365.897183,1162.91805 245.143089,1222.89171 131.281712,1143.97623 C47.8763238,1086.17299 51.726073,979.221873 61.4425245,920.616237 C70.4486577,866.316357 94.7967872,816.309078 118.338136,767.95044 C122.348826,759.731666 126.327223,751.497173 130.273235,743.247151 C142.140161,747.991121 154.592094,751.114797 167.293091,752.533904 C143.326428,831.629151 181.01714,917.63027 260.121156,958.267486 L270.951317,963.831646 L282.412871,959.749508 C344.951565,937.475333 402.579418,901.740188 453.691636,853.51309 C486.730202,822.342398 515.138545,787.856888 538.486968,751.008035 C545.585279,752.0789 552.753806,752.616796 559.932439,752.617213 C632.538359,752.617213 692.661095,698.339256 701.965386,628.236988 C731.684749,627.149587 763.250062,627.140818 793.140428,628.228218 C802.43595,698.339256 862.567455,752.621597 935.173375,752.621597 C965.532902,752.621597 993.691318,743.106841 1016.89066,726.94491 C1032.99559,759.913321 1039.00699,797.007716 1032.5922,833.957416 L1032.5922,833.957416 Z M183.279635,523.070432 C231.283114,523.070432 270.333077,562.124779 270.333077,610.128258 C270.333077,627.368821 265.273156,643.447444 256.587104,656.987336 C242.117659,679.555286 217.519603,695.024437 189.260339,696.953697 C187.282848,697.085237 185.287818,697.1817 183.279635,697.1817 C172.581015,697.1817 162.334017,695.230517 152.858723,691.687696 C133.775859,684.51188 117.795639,670.901167 107.674593,653.203357 C100.159218,640.092181 96.2104943,625.240626 96.2217841,610.128258 C96.2217841,562.124779 135.276155,523.070432 183.279635,523.070432 L183.279635,523.070432 Z M472.883381,609.299554 C472.883381,565.685139 505.123935,529.472065 547.015171,523.210741 C551.233233,522.574963 555.547758,522.246112 559.936823,522.246112 C587.845313,522.246112 612.693296,535.465923 628.627224,555.951149 C632.618399,561.058896 636.027373,566.595904 638.790913,572.45947 C644.202064,583.986384 647.0018,596.565734 646.990301,609.299554 C646.990301,616.258041 646.148407,623.023603 644.600614,629.51293 C636.116258,665.02884 605.831272,692.17878 568.719338,695.914528 C565.834218,696.203916 562.905252,696.353025 559.936823,696.353025 C543.19215,696.366744 526.803197,691.521646 512.757664,682.405328 C488.791001,666.879175 472.883381,639.917776 472.883381,609.299554 L472.883381,609.299554 Z M836.219911,505.777253 C817.27576,523.859519 803.642294,546.782122 796.797251,572.060464 C763.98468,570.850778 731.138673,570.850778 698.326102,572.060464 C690.959839,544.735137 675.692382,520.628165 655.150155,502.31774 L745.233411,320.169353 L836.219911,505.777253 Z M448.184478,56.2729865 L1042.03242,56.2729865 L901.770881,469.945646 C895.736542,471.390979 889.803117,473.229154 884.008541,475.448419 L745.452645,192.798776 L606.502128,473.760317 C600.444806,471.681144 594.25422,470.012645 587.972469,468.766167 L448.184478,56.2729865 Z M1022.22682,609.303938 C1022.22682,618.029452 1020.92457,626.456808 1018.52615,634.415002 C1012.836,653.150924 1001.01908,669.433359 984.970189,680.651456 C970.383821,690.888112 952.993336,696.373074 935.173375,696.357414 C894.979011,696.357414 861.072279,668.966283 851.101516,631.871888 C849.121587,624.512678 848.119933,616.924836 848.119933,609.303938 C848.119933,597.403916 850.522738,586.056364 854.863572,575.717288 C857.103526,570.427144 859.861791,565.371792 863.098001,560.625218 C878.764464,537.500414 905.199701,522.250496 935.173375,522.250496 C937.92257,522.250496 940.632302,522.390806 943.320111,522.645118 C987.517688,526.762332 1022.2312,564.045269 1022.2312,609.303938 L1022.22682,609.303938 Z M1078.49542,609.303938 C1078.49542,539.333211 1028.08037,480.951193 961.678768,468.481162 L1120.51819,0 L369.70747,0 L528.792439,469.428253 C464.697183,483.691618 416.619164,540.968697 416.619164,609.299554 C416.619164,660.609082 443.734027,705.674826 484.371244,731.000739 C464.824339,760.123785 441.646919,787.528037 415.084526,812.590869 C372.956518,852.329227 326.027285,882.469519 275.43246,902.301427 C224.469321,870.288877 202.927387,809.916214 225.298026,757.326359 L227.051898,753.20476 L230.340408,745.470184 C286.315236,725.945203 326.597294,672.671338 326.597294,610.128258 C326.597294,531.098781 262.304727,466.806215 183.279635,466.806215 C104.254543,466.806215 39.9532065,531.098781 39.9532065,610.128258 C39.9532065,650.015695 56.3519107,686.136691 82.7389165,712.146614 C77.817527,722.573825 72.8217874,732.965781 67.7520794,743.321691 C43.6231839,792.872962 16.2803178,849.036332 5.93685707,911.408408 C-14.6009853,1035.27563 18.5296588,1134.29486 99.229699,1190.22146 C148.197808,1224.15888 197.928852,1237.50585 247.971207,1237.50585 C342.197986,1237.50585 437.520935,1190.16446 530.752392,1143.85346 C597.895,1110.50797 667.326412,1076.02246 735.907196,1059.10636 C761.426035,1052.81435 787.681501,1049.02598 815.480374,1045.01839 C870.608959,1037.06458 927.609802,1028.8433 978.10378,999.601867 C1036.63488,965.699519 1076.6977,908.830216 1088.02771,843.586174 C1097.75293,787.571884 1086.05022,731.4699 1057.50595,683.88735 C1071.25989,661.44176 1078.52518,635.62396 1078.49542,609.299554 L1078.49542,609.303938 Z" id="Shape" fill="#FFFFFF"></path>
        </g>
    </g>
</svg>